# xmcd
#
# Track frame offsets:
#   150
#   16238
#   41814
#   56762
#   79928
#   100183
#   115146
#   127767
#   142697
#   150690
#   166776
#   192352
#   207302
#   230468
#   250721
#   265687
#   278308
#
# Disc length: 3904 seconds
#
# Revision: 0
# Processed by: cddbd v1.5.1PL0 Copyright (c) Steve Scherf et al.
# Submitted via: uFREEDB ActiveX Control 1.5
#
DISCID=d40f3e11
DTITLE=Eduardo and Silvana - Hinos
DYEAR=1900
DGENRE=Gospel and Religious
TTITLE0=Surgem Anjos Proclamando
TTITLE1=Cidade Santa
TTITLE2=Cristo Já Ressuscitou
TTITLE3=Grandioso És Tu
TTITLE4=Noite Divinal
TTITLE5=Saudai o Nome de Jesus
TTITLE6=Pai Nosso
TTITLE7=Aleluia de Haendel
TTITLE8=Cristo Já Ressuscitou
TTITLE9=
TTITLE10=
TTITLE11=
TTITLE12=
TTITLE13=
TTITLE14=
TTITLE15=
TTITLE16=
EXTD=
EXTT0=
EXTT1=
EXTT2=
EXTT3=
EXTT4=
EXTT5=
EXTT6=
EXTT7=
EXTT8=
EXTT9=
EXTT10=
EXTT11=
EXTT12=
EXTT13=
EXTT14=
EXTT15=
EXTT16=
PLAYORDER=
